<svg id="Groupe_1" data-name="Groupe 1" xmlns="http://www.w3.org/2000/svg" width="69.502" height="44.491" viewBox="0 0 69.502 44.491">
  <path id="Tracé_1" data-name="Tracé 1" d="M834.879,335.139v44.313H877.54V335.139Z" transform="translate(-808.695 -334.96)" fill="#008b82"/>
  <g id="Groupe_1-2" data-name="Groupe 1" transform="translate(26.08)">
    <path id="Tracé_2" data-name="Tracé 2" d="M838.335,333.135v13.309h5.692v3.6H833.712V333.135Z" transform="translate(-833.712 -333.135)" fill="#141414"/>
    <path id="Tracé_3" data-name="Tracé 3" d="M965.466,333.135v16.908h-4.623V333.135Z" transform="translate(-949.509 -333.135)" fill="#141414"/>
    <path id="Tracé_4" data-name="Tracé 4" d="M1040.451,333.135l2.983,10.42h.05v-10.42h4.325v16.908h-5.071l-3.082-10.443h-.05v10.443h-4.325V333.135Z" transform="translate(-1017.311 -333.135)" fill="#141414"/>
    <path id="Tracé_5" data-name="Tracé 5" d="M1210.843,333.135v3.6h-5.891v2.889h5.518v3.457h-5.518v3.363h6.115v3.6h-10.738V333.135Z" transform="translate(-1167.644 -333.135)" fill="#141414"/>
  </g>
  <g id="Groupe_3" data-name="Groupe 3" transform="translate(0 27.691)">
    <g id="Groupe_2" data-name="Groupe 2" transform="translate(0 0)">
      <path id="Tracé_6" data-name="Tracé 6" d="M544.946,643.735a2.742,2.742,0,0,1,1.975.619,2.2,2.2,0,0,1,.636,1.652,2.78,2.78,0,0,1-.087.7,2.021,2.021,0,0,1-.268.612,1.673,1.673,0,0,1-.462.466,1.8,1.8,0,0,1-.683.268v.026a1.86,1.86,0,0,1,.8.236,1.811,1.811,0,0,1,.549.491,2.037,2.037,0,0,1,.315.644,2.563,2.563,0,0,1,.1.708,3.512,3.512,0,0,1-.161,1.084,2.193,2.193,0,0,1-.5.855,2.27,2.27,0,0,1-.891.555,3.924,3.924,0,0,1-1.326.2h-3.763v-9.109Zm-.669,3.572a.684.684,0,0,0,.589-.274,1.06,1.06,0,0,0,.2-.644,1.109,1.109,0,0,0-.2-.663.679.679,0,0,0-.589-.281h-.6v1.863Zm.094,3.827a.837.837,0,0,0,.616-.274,1.174,1.174,0,0,0,.268-.848,1.139,1.139,0,0,0-.268-.816.83.83,0,0,0-.616-.281h-.7v2.22Z" transform="translate(-541.183 -643.735)" fill="#008b82"/>
      <path id="Tracé_7" data-name="Tracé 7" d="M630.39,643.735a3.636,3.636,0,0,1,1.212.179,2.088,2.088,0,0,1,.817.5,1.927,1.927,0,0,1,.455.772,3.217,3.217,0,0,1,.141.97,2.554,2.554,0,0,1-.388,1.48,1.738,1.738,0,0,1-1.245.689v.026a1.514,1.514,0,0,1,1.232.6,2.661,2.661,0,0,1,.335,1.442v1.148q0,.191.013.364a2.744,2.744,0,0,0,.04.313.8.8,0,0,0,.067.217c.036.051.071.1.107.147a.519.519,0,0,0,.174.134v.128H630.7a1.519,1.519,0,0,1-.141-.421,4.539,4.539,0,0,1-.067-.485q-.02-.242-.027-.466t-.007-.364V650.5a4.2,4.2,0,0,0-.04-.638.98.98,0,0,0-.141-.4.529.529,0,0,0-.254-.2,1.1,1.1,0,0,0-.382-.057h-.656v3.649h-2.491v-9.109Zm-.911,3.853a.98.98,0,0,0,.79-.3,1.171,1.171,0,0,0,.254-.785,1.113,1.113,0,0,0-.248-.816,1.13,1.13,0,0,0-.81-.242h-.482v2.143Z" transform="translate(-618.887 -643.735)" fill="#008b82"/>
      <path id="Tracé_8" data-name="Tracé 8" d="M718.368,643.735v1.939h-3.173v1.556h2.973v1.863h-2.973V650.9h3.294v1.939H712.7v-9.109Z" transform="translate(-697.413 -643.735)" fill="#008b82"/>
    </g>
    <path id="Tracé_9" data-name="Tracé 9" d="M787.816,645.6l-.683,3.866h.7v1.786h-.991l-.254,1.594h-2.611l2.29-9.109h1.567V645.6Z" transform="translate(-762.328 -643.735)" fill="#008b82"/>
  </g>
  <g id="Groupe_6" data-name="Groupe 6" transform="translate(25.934 31.812)">
    <g id="Groupe_4" data-name="Groupe 4" transform="translate(4.769 0)">
      <path id="Tracé_10" data-name="Tracé 10" d="M893.224,701.326H890.1l-1.4-3.049-.376.551v2.5H885.58v-9.359h2.741v3.167l1.674-3.167h2.949l-2.489,4.11Zm-2.966-.25h2.551l-2.641-5.008,2.332-3.851h-2.354l-1.848,3.5h-.227v-3.5h-2.24v8.859h2.24v-2.325l.669-.98Z" transform="translate(-885.58 -691.788)" fill="#141414"/>
      <path id="Tracé_11" data-name="Tracé 11" d="M976.176,701.326h-6.035v-9.359h5.914v2.189h-3.174v1.306h2.973v2.113h-2.973v1.561h3.294Zm-5.785-.25h5.534v-1.689h-3.294v-2.062H975.6v-1.612h-2.973v-1.807h3.174v-1.689h-5.414Z" transform="translate(-962.602 -691.788)" fill="#141414"/>
      <path id="Tracé_12" data-name="Tracé 12" d="M1052.344,701.326h-2.852l-.035-.067a1.653,1.653,0,0,1-.153-.456,4.635,4.635,0,0,1-.069-.5c-.014-.164-.023-.323-.027-.472s-.007-.268-.007-.367v-.612a4.111,4.111,0,0,0-.039-.618.863.863,0,0,0-.12-.351.4.4,0,0,0-.195-.158.986.986,0,0,0-.338-.049h-.531v3.649h-2.741v-9.359h4.022a3.77,3.77,0,0,1,1.254.186,2.222,2.222,0,0,1,.865.535,2.06,2.06,0,0,1,.485.821,3.356,3.356,0,0,1,.146,1.007,2.684,2.684,0,0,1-.41,1.551,1.665,1.665,0,0,1-.815.613,1.373,1.373,0,0,1,.8.563,2.792,2.792,0,0,1,.354,1.509V699.9c0,.125,0,.244.013.354a2.7,2.7,0,0,0,.038.3.71.71,0,0,0,.052.176c.033.047.066.092.1.135a.4.4,0,0,0,.133.1l.066.035Zm-2.7-.25H1052a.454.454,0,0,1-.056-.061c-.037-.048-.074-.1-.11-.151l-.008-.013a.9.9,0,0,1-.079-.252,2.873,2.873,0,0,1-.042-.326c-.009-.117-.014-.242-.014-.373v-1.148a2.555,2.555,0,0,0-.315-1.374,1.4,1.4,0,0,0-1.137-.542l-.115-.01v-.248l.107-.016a1.626,1.626,0,0,0,1.161-.636,2.443,2.443,0,0,0,.366-1.409,3.1,3.1,0,0,0-.135-.932,1.809,1.809,0,0,0-.426-.722,1.975,1.975,0,0,0-.769-.473,3.527,3.527,0,0,0-1.17-.171h-3.771v8.859h2.24v-3.649h.781a1.227,1.227,0,0,1,.425.065.653.653,0,0,1,.314.251,1.1,1.1,0,0,1,.161.453,4.361,4.361,0,0,1,.042.657v.612c0,.1,0,.218.007.36s.013.3.026.459a4.427,4.427,0,0,0,.065.471A1.522,1.522,0,0,0,1049.646,701.076Zm-1.3-5.006h-.621v-2.393h.607a1.251,1.251,0,0,1,.9.278,1.232,1.232,0,0,1,.285.906,1.3,1.3,0,0,1-.284.866A1.1,1.1,0,0,1,1048.349,696.07Zm-.37-.25h.37a.856.856,0,0,0,.695-.256,1.057,1.057,0,0,0,.225-.7,1,1,0,0,0-.21-.727,1.021,1.021,0,0,0-.722-.207h-.357Z" transform="translate(-1031.004 -691.788)" fill="#141414"/>
      <path id="Tracé_13" data-name="Tracé 13" d="M1131.485,699.642a7.093,7.093,0,0,1-1.4-.124,2.655,2.655,0,0,1-1.053-.443,2.04,2.04,0,0,1-.663-.835,3.1,3.1,0,0,1-.225-1.25v-.444h2.66v.342a1.071,1.071,0,0,0,.193.736.656.656,0,0,0,.5.2.6.6,0,0,0,.5-.209.829.829,0,0,0,.179-.546.784.784,0,0,0-.247-.616,2.444,2.444,0,0,0-.688-.424c-.29-.123-.606-.249-.939-.374a4.341,4.341,0,0,1-.972-.512,2.623,2.623,0,0,1-.76-.844,2.713,2.713,0,0,1-.3-1.364,2.891,2.891,0,0,1,.816-2.209,3.474,3.474,0,0,1,2.442-.761,3.566,3.566,0,0,1,2.448.7,2.9,2.9,0,0,1,.77,2.229v.125h-2.58v-.342a1.2,1.2,0,0,0-.156-.63.457.457,0,0,0-.429-.227.568.568,0,0,0-.489.2.828.828,0,0,0,.1,1.093,2.691,2.691,0,0,0,.723.432c.3.127.629.257.973.387a4.6,4.6,0,0,1,1,.531,2.741,2.741,0,0,1,.793.875,2.785,2.785,0,0,1,.318,1.409,2.6,2.6,0,0,1-.92,2.211A4.261,4.261,0,0,1,1131.485,699.642ZM1128.4,696.8v.194a2.856,2.856,0,0,0,.2,1.149,1.792,1.792,0,0,0,.582.734,2.407,2.407,0,0,0,.955.4,6.848,6.848,0,0,0,1.348.119,4.024,4.024,0,0,0,2.442-.632,2.368,2.368,0,0,0,.821-2.012,2.542,2.542,0,0,0-.284-1.283,2.492,2.492,0,0,0-.72-.8,4.345,4.345,0,0,0-.95-.5c-.347-.131-.677-.263-.982-.391a2.934,2.934,0,0,1-.79-.474,1.013,1.013,0,0,1-.344-.8,1.026,1.026,0,0,1,.213-.63.81.81,0,0,1,.689-.3.7.7,0,0,1,.643.347,1.447,1.447,0,0,1,.192.76v.092h2.078a2.587,2.587,0,0,0-.688-1.92,3.339,3.339,0,0,0-2.279-.637,3.24,3.24,0,0,0-2.271.693,2.654,2.654,0,0,0-.737,2.026,2.471,2.471,0,0,0,.271,1.239,2.373,2.373,0,0,0,.687.764,4.094,4.094,0,0,0,.916.483c.337.127.656.254.949.378a2.688,2.688,0,0,1,.758.469,1.033,1.033,0,0,1,.329.8,1.084,1.084,0,0,1-.236.7.846.846,0,0,1-.693.3.905.905,0,0,1-.679-.274,1.274,1.274,0,0,1-.263-.91V696.8Z" transform="translate(-1106.521 -689.964)" fill="#141414"/>
    </g>
    <g id="Groupe_5" data-name="Groupe 5" transform="translate(0 0.183)">
      <path id="Tracé_14" data-name="Tracé 14" d="M836.267,701.374h-2.919l-.255-1.594h-1.009v-2.036h.672l-.639-3.616h-.033v-2.113h1.789Zm-2.706-.25h2.383l-2.266-8.859h-1.345v1.652l.72,4.076h-.72v1.536h.972Z" transform="translate(-832.084 -692.015)" fill="#141414"/>
    </g>
  </g>
</svg>
